<svg width="188" height="36" viewBox="0 0 188 36" fill="none" xmlns="http://www.w3.org/2000/svg">
<path d="M42.4771 28.8329V12.1829H45.618V14.6027C46.7486 12.8026 48.3618 11.9016 50.4557 11.9016C51.6077 11.9016 52.6547 12.1954 53.5966 12.7812C54.5385 13.367 55.2721 14.2163 55.7956 15.3256C56.3618 14.2573 57.156 13.4204 58.1833 12.8115C59.2089 12.2043 60.32 11.8998 61.513 11.8998C63.2294 11.8998 64.6966 12.507 65.9109 13.7213C67.1253 14.9357 67.7325 16.5916 67.7325 18.6855V28.8329H64.5916V19.4707C64.5916 17.984 64.2657 16.8266 63.6176 15.9987C62.9677 15.1725 62.0667 14.7576 60.9165 14.7576C59.6185 14.7576 58.6071 15.2027 57.8842 16.093C57.1613 16.9833 56.7696 18.0873 56.7055 19.4066V28.8311H53.5646V19.469C53.5646 18.0036 53.2352 16.8515 52.5746 16.0129C51.914 15.176 51.0202 14.7558 49.8895 14.7558C48.5078 14.7558 47.4501 15.2473 46.7166 16.2319C45.983 17.2166 45.618 18.4202 45.618 19.8447V28.8293H42.4771V28.8329Z" fill="#020617"/>
<path d="M78.3213 29.084C76.0172 29.084 74.0533 28.2418 72.4312 26.5556C70.8074 24.8694 69.9972 22.8431 69.9972 20.4768C69.9972 18.089 70.8091 16.0628 72.4312 14.3979C74.0533 12.7331 76.0172 11.8998 78.3213 11.8998C80.7927 11.8998 82.7086 12.8738 84.0707 14.8217V12.1829H87.2116V28.8329H84.0707V26.1941C83.4422 27.0951 82.6302 27.802 81.6367 28.3148C80.6396 28.8276 79.5356 29.084 78.3213 29.084ZM78.6044 26.2262C80.1535 26.2262 81.4836 25.66 82.5946 24.5293C83.7039 23.3986 84.2594 22.0472 84.2594 20.4768C84.2594 18.9277 83.7039 17.5816 82.5946 16.4402C81.4836 15.2989 80.1553 14.7273 78.6044 14.7273C77.0126 14.7273 75.6718 15.2936 74.5839 16.4242C73.4942 17.5549 72.9511 18.9063 72.9511 20.4768C72.9511 22.0686 73.5013 23.4254 74.5999 24.5453C75.6985 25.6653 77.034 26.2262 78.6044 26.2262Z" fill="#020617"/>
<path d="M101.253 28.7065C98.698 29.3973 96.6503 29.2923 95.1119 28.3931C93.5717 27.4921 92.8025 25.8807 92.8025 23.5553L92.8346 14.9161H89.537V12.1829H92.8346V7.87931H95.9452L95.9132 12.1829H101.191V14.9161H95.9132L95.8811 23.5233C95.8811 24.6967 96.3262 25.4872 97.2165 25.895C98.1068 26.3027 99.4529 26.2351 101.253 25.6902V28.7065Z" fill="#020617"/>
<path d="M111.495 29.084C109.086 29.084 107.06 28.2364 105.416 26.5396C103.771 24.8427 102.95 22.8217 102.95 20.4768C102.95 18.089 103.787 16.0628 105.463 14.3979C107.138 12.7331 109.148 11.8998 111.493 11.8998C113.252 11.8998 114.839 12.3913 116.253 13.3759C117.666 14.3605 118.687 15.6586 119.315 17.2717L116.393 18.0249C115.954 17.0403 115.298 16.2444 114.429 15.6372C113.561 15.03 112.581 14.7256 111.492 14.7256C109.941 14.7256 108.621 15.2918 107.533 16.4224C106.444 17.5531 105.901 18.9045 105.901 20.475C105.901 22.0668 106.445 23.4236 107.533 24.5435C108.621 25.6635 109.941 26.2244 111.492 26.2244C112.601 26.2244 113.585 25.9253 114.444 25.3288C115.302 24.7323 115.952 23.9417 116.392 22.9571L119.314 23.7102C118.685 25.3021 117.668 26.5947 116.267 27.5901C114.867 28.5872 113.276 29.084 111.495 29.084Z" fill="#020617"/>
<path d="M121.955 28.8329V6.84303H125.096V14.6971C126.373 12.8328 128.196 11.9016 130.563 11.9016C132.468 11.9016 134.113 12.5194 135.495 13.7551C136.876 14.9909 137.569 16.6343 137.569 18.6873V28.8347H134.428V19.5989C134.428 18.1122 133.999 16.9441 133.141 16.0966C132.283 15.249 131.225 14.8253 129.968 14.8253C128.543 14.8253 127.375 15.3434 126.466 16.3797C125.554 17.416 125.1 18.7193 125.1 20.2898V28.8347H121.955V28.8329Z" fill="#020617"/>
<path d="M148.815 29.084C146.428 29.084 144.407 28.2418 142.752 26.5556C141.098 24.8694 140.27 22.8431 140.27 20.4768C140.27 18.089 141.107 16.0628 142.783 14.3979C144.458 12.7331 146.468 11.8998 148.813 11.8998C150.907 11.8998 152.745 12.596 154.326 13.9884C155.907 15.3808 156.854 17.1044 157.17 19.1556C157.358 20.0975 157.369 20.9255 157.202 21.6377H143.379C143.568 23.0408 144.17 24.1607 145.186 24.9994C146.201 25.838 147.412 26.2564 148.815 26.2564C149.8 26.2564 150.731 26.0481 151.611 25.6279C152.49 25.2095 153.213 24.6326 153.778 23.9008L156.573 24.6237C155.902 25.9644 154.846 27.0434 153.4 27.8589C151.956 28.6762 150.427 29.084 148.815 29.084ZM143.381 19.1894H154.125C153.915 17.9128 153.318 16.8444 152.334 15.9844C151.349 15.1262 150.167 14.6971 148.783 14.6971C147.38 14.6971 146.176 15.1315 145.17 16.0004C144.166 16.8694 143.568 17.9323 143.381 19.1894Z" fill="#020617"/>
<path d="M159.873 28.8329V12.1829H163.014V15.1992C163.516 14.0472 164.338 13.1836 165.48 12.6067C166.621 12.0316 167.997 11.8678 169.611 12.1188V15.4485C167.851 14.9463 166.311 15.1653 164.992 16.109C163.672 17.051 163.014 18.4861 163.014 20.4126V28.8311H159.873V28.8329Z" fill="#020617"/>
<path d="M185.178 26.5556C183.513 28.2418 181.498 29.084 179.131 29.084C176.765 29.084 174.749 28.2418 173.085 26.5556C171.42 24.8694 170.586 22.8431 170.586 20.4767C170.586 18.1104 171.42 16.0895 173.085 14.414C174.749 12.7385 176.765 11.9016 179.131 11.9016C181.498 11.9016 183.513 12.7456 185.178 14.43C186.843 16.1162 187.676 18.1318 187.676 20.4767C187.674 22.8431 186.843 24.8694 185.178 26.5556ZM175.171 24.5293C176.259 25.6404 177.579 26.1941 179.13 26.1941C180.679 26.1941 181.998 25.6332 183.088 24.5133C184.176 23.3933 184.72 22.0472 184.72 20.4767C184.72 18.9063 184.181 17.5602 183.102 16.4402C182.023 15.3203 180.698 14.7594 179.128 14.7594C177.577 14.7594 176.257 15.3203 175.17 16.4402C174.08 17.5602 173.537 18.9063 173.537 20.4767C173.539 22.0686 174.083 23.42 175.171 24.5293Z" fill="#020617"/>
<path d="M7.72705 29.3457C7.9425 29.0127 8.15972 28.6976 8.41434 28.3842C8.49269 28.2863 8.57103 28.1883 8.64938 28.0886C9.26189 27.3194 10.0008 26.6677 10.7896 26.0873C11.0834 25.87 11.3986 25.6546 11.7119 25.4587C12.0841 25.2433 12.4776 25.0456 12.8711 24.8498C13.1061 24.7518 13.3411 24.6343 13.5975 24.5364C13.8326 24.4581 14.0694 24.3797 14.3044 24.3014C14.7959 24.1447 15.2855 24.0076 15.7965 23.9079C16.0529 23.8687 16.3271 23.8295 16.5817 23.7904C16.7189 23.7708 16.8755 23.7512 17.034 23.7512C16.6815 27.5206 14.6196 30.9375 11.4377 32.9994C11.2419 32.9015 11.0656 32.7644 10.8875 32.6077C10.6329 32.4296 10.3783 32.2355 10.1219 32.0183C10.0044 31.94 9.90645 31.8616 9.80851 31.7637C9.59307 31.5678 9.37584 31.372 9.17998 31.1547C8.92358 30.8805 8.66896 30.6045 8.41434 30.2912C8.17931 29.9938 7.9425 29.6804 7.72705 29.3457Z" fill="#06B6D4"/>
<path d="M17.0363 23.7494C17.1929 23.7494 17.3496 23.769 17.5063 23.7886C17.7218 23.8277 17.939 23.8473 18.1544 23.8865C18.4482 23.9453 18.7438 24.004 19.018 24.0824C19.2139 24.1411 19.3919 24.1803 19.5682 24.2391C20.1184 24.4171 20.6686 24.613 21.1778 24.8676C21.6497 25.083 22.1002 25.3199 22.5328 25.6136C22.905 25.8291 23.2593 26.1051 23.6136 26.3793C23.87 26.5751 24.1051 26.7924 24.3401 27.0078C24.7532 27.4013 25.1449 27.8126 25.4992 28.2649C25.7948 28.6174 26.0494 28.9914 26.304 29.3831C26.0494 29.7766 25.7734 30.1487 25.4796 30.503C25.1859 30.8556 24.8903 31.1904 24.5573 31.5037C24.1638 31.8972 23.7525 32.2498 23.3002 32.5436C23.0848 32.7216 22.8676 32.8587 22.6521 32.9762C19.4703 30.9179 17.3888 27.501 17.0363 23.7494Z" fill="#06B6D4"/>
<path d="M17.0145 35.015C18.3066 35.015 19.3541 33.9675 19.3541 32.6753C19.3541 31.3832 18.3066 30.3357 17.0145 30.3357C15.7223 30.3357 14.6748 31.3832 14.6748 32.6753C14.6748 33.9675 15.7223 35.015 17.0145 35.015Z" fill="#06B6D4"/>
<path d="M26.3018 6.65429C26.0864 6.98726 25.8692 7.30241 25.6145 7.61579C25.5362 7.71372 25.4579 7.81166 25.3795 7.91137C24.767 8.68057 24.0281 9.33225 23.2393 9.91271C22.9455 10.1299 22.6303 10.3454 22.3169 10.5412C21.9448 10.7567 21.5513 10.9543 21.1578 11.1502C20.9228 11.2481 20.6877 11.3656 20.4313 11.4636C20.1963 11.5419 19.9595 11.6203 19.7245 11.6986C19.233 11.8553 18.7434 11.9924 18.2324 12.0921C17.976 12.1313 17.7018 12.1705 17.4471 12.2096C17.31 12.2292 17.1533 12.2488 16.9949 12.2488C17.3474 8.47936 19.4093 5.06247 22.5912 3.00059C22.787 3.09852 22.9633 3.23562 23.1413 3.39231C23.396 3.57037 23.6506 3.76445 23.907 3.98168C24.0245 4.06002 24.1224 4.13836 24.2204 4.23629C24.4358 4.43216 24.653 4.62801 24.8489 4.84524C25.1053 5.11945 25.3599 5.39543 25.6145 5.70881C25.8514 6.00616 26.0864 6.31955 26.3018 6.65429Z" fill="#06B6D4"/>
<path d="M16.9946 12.2506C16.8379 12.2506 16.6812 12.231 16.5245 12.2114C16.3091 12.1722 16.0919 12.1526 15.8764 12.1135C15.5826 12.0547 15.287 11.996 15.0128 11.9176C14.817 11.8589 14.6389 11.8197 14.4626 11.7609C13.9125 11.5829 13.3623 11.387 12.853 11.1324C12.3812 10.9169 11.9307 10.6801 11.498 10.3863C11.1259 10.1709 10.7716 9.8949 10.4172 9.6207C10.1608 9.42483 9.92579 9.2076 9.69076 8.99215C9.27767 8.59865 8.88595 8.18734 8.53162 7.73508C8.23604 7.38253 7.98143 7.00862 7.72681 6.6169C7.98143 6.22339 8.25741 5.85126 8.5512 5.49693C8.84499 5.14438 9.14057 4.80963 9.47353 4.49625C9.86703 4.10275 10.2783 3.7502 10.7306 3.45641C10.946 3.27835 11.1633 3.14125 11.3787 3.02374C14.5606 5.08206 16.642 8.49895 16.9946 12.2506Z" fill="#06B6D4"/>
<path d="M17.0145 5.6643C18.3066 5.6643 19.3541 4.61681 19.3541 3.32466C19.3541 2.0325 18.3066 0.985001 17.0145 0.985001C15.7223 0.985001 14.6748 2.0325 14.6748 3.32466C14.6748 4.61681 15.7223 5.6643 17.0145 5.6643Z" fill="#06B6D4"/>
<path d="M5.6692 8.71262C6.00216 8.92806 6.31733 9.14529 6.6307 9.39991C6.72863 9.47825 6.82657 9.5566 6.92628 9.63494C7.69548 10.2475 8.34716 10.9864 8.92762 11.7752C9.14485 12.069 9.36029 12.3841 9.55616 12.6975C9.7716 13.0696 9.96924 13.4631 10.1651 13.8566C10.263 14.0917 10.3806 14.3267 10.4785 14.5831C10.5568 14.8181 10.6352 15.055 10.7135 15.29C10.8702 15.7814 11.0073 16.2711 11.107 16.7821C11.1462 17.0367 11.1854 17.3127 11.2245 17.5673C11.2441 17.7044 11.2637 17.8611 11.2637 18.0196C7.49427 17.667 4.07739 15.6051 2.0155 12.4233C2.11343 12.2274 2.25054 12.0512 2.40723 11.8731C2.58528 11.6185 2.77936 11.3639 2.99659 11.1075C3.07494 10.9899 3.15328 10.892 3.25121 10.7941C3.44707 10.5786 3.64293 10.3614 3.86016 10.1655C4.13437 9.91093 4.41035 9.65453 4.72373 9.39991C5.02108 9.16487 5.33624 8.92806 5.6692 8.71262Z" fill="#06B6D4"/>
<path d="M11.2655 18.0196C11.2655 18.1763 11.2459 18.333 11.2264 18.4896C11.1872 18.7051 11.1676 18.9223 11.1284 19.1378C11.0697 19.4316 11.0109 19.7271 10.9326 20.0013C10.8738 20.1972 10.8346 20.3753 10.7759 20.5515C10.5978 21.1017 10.402 21.6519 10.1473 22.1612C9.9319 22.633 9.69509 23.0835 9.40129 23.5162C9.18585 23.8883 8.90986 24.2426 8.63565 24.597C8.43979 24.8534 8.22256 25.0884 8.00712 25.3234C7.61361 25.7365 7.20231 26.1282 6.75004 26.4826C6.39749 26.7781 6.02358 27.0328 5.63186 27.2874C5.23835 27.0328 4.86622 26.7568 4.51188 26.463C4.15933 26.1692 3.82459 25.8736 3.51121 25.5406C3.11771 25.1471 2.76516 24.7358 2.47137 24.2836C2.29331 24.0681 2.15621 23.8509 2.0387 23.6355C4.0988 20.4536 7.51569 18.3739 11.2655 18.0196Z" fill="#06B6D4"/>
<path d="M2.33965 20.3396C3.63181 20.3396 4.6793 19.2921 4.6793 18C4.6793 16.7078 3.63181 15.6603 2.33965 15.6603C1.0475 15.6603 0 16.7078 0 18C0 19.2921 1.0475 20.3396 2.33965 20.3396Z" fill="#06B6D4"/>
<path d="M28.3625 27.2874C28.0295 27.0719 27.7143 26.8547 27.401 26.6001C27.303 26.5217 27.2051 26.4434 27.1054 26.365C26.3362 25.7525 25.6845 25.0136 25.104 24.2248C24.8868 23.931 24.6714 23.6159 24.4755 23.3025C24.2601 22.9304 24.0624 22.5369 23.8665 22.1434C23.7686 21.9083 23.6511 21.6733 23.5532 21.4169C23.4748 21.1819 23.3965 20.945 23.3181 20.71C23.1615 20.2186 23.0243 19.7289 22.9246 19.2179C22.8855 18.9633 22.8463 18.6873 22.8071 18.4327C22.7875 18.2956 22.7679 18.1389 22.7679 17.9804C26.5374 18.333 29.9543 20.3948 32.0161 23.5767C31.9182 23.7726 31.7811 23.9488 31.6244 24.1269C31.4464 24.3815 31.2523 24.6361 31.0351 24.8925C30.9567 25.0101 30.8784 25.108 30.7804 25.2059C30.5846 25.4213 30.3887 25.6386 30.1715 25.8344C29.8973 26.0891 29.6213 26.3455 29.3079 26.6001C29.0106 26.8351 28.6954 27.0719 28.3625 27.2874Z" fill="#06B6D4"/>
<path d="M22.7645 17.9804C22.7645 17.8237 22.7841 17.667 22.8037 17.5103C22.8429 17.2949 22.8625 17.0777 22.9016 16.8622C22.9604 16.5684 23.0191 16.2729 23.0975 15.9987C23.1562 15.8028 23.1954 15.6247 23.2542 15.4485C23.4322 14.8983 23.6281 14.3481 23.8827 13.8388C24.0982 13.367 24.335 12.9165 24.6288 12.4838C24.8442 12.1117 25.1202 11.7574 25.3944 11.403C25.5903 11.1466 25.8075 10.9116 26.0229 10.6766C26.4164 10.2635 26.8278 9.87175 27.28 9.51742C27.6326 9.22185 28.0065 8.96724 28.3982 8.71262C28.7917 8.96724 29.1638 9.24322 29.5182 9.53701C29.8707 9.8308 30.2055 10.1264 30.5188 10.4593C30.9124 10.8528 31.2649 11.2642 31.5587 11.7164C31.7367 11.9319 31.8738 12.1491 31.9914 12.3645C29.933 15.5464 26.5162 17.6261 22.7645 17.9804Z" fill="#06B6D4"/>
<path d="M31.6921 20.3396C32.9842 20.3396 34.0317 19.2921 34.0317 18C34.0317 16.7078 32.9842 15.6603 31.6921 15.6603C30.3999 15.6603 29.3524 16.7078 29.3524 18C29.3524 19.2921 30.3999 20.3396 31.6921 20.3396Z" fill="#06B6D4"/>
</svg>
