<svg width="1045" height="1242" viewBox="0 0 1045 1242" fill="none" xmlns="http://www.w3.org/2000/svg">
<path d="M375.054 -235.412C360.996 -207.745 348.178 -180.734 337.023 -151.166C333.412 -141.985 329.853 -132.834 326.295 -123.684C298.229 -51.9907 282.943 23.4418 274.322 99.6279C271.109 128.001 268.731 157.721 267.615 186.7C267.497 220.393 269.363 254.618 271.341 288.918C273.807 308.664 274.958 329.18 278.206 350.303C281.985 369.279 285.742 388.338 289.552 407.366C297.841 446.725 307.55 485.252 320.504 523.571C327.695 542.382 335.609 562.466 342.8 581.278C346.809 591.289 351.466 602.686 357.52 613.334C596.671 441.261 746.514 167.702 762.512 -128.255C748.412 -137.647 732.406 -144.227 715.116 -149.983C693.447 -160.235 670.517 -169.748 646.19 -178.513C636.415 -183.378 627.416 -187.002 617.058 -189.688C595.551 -196.574 574.179 -203.469 552.141 -208.208C523.925 -214.692 495.685 -221.092 464.818 -225.951C435.822 -230.354 405.677 -233.941 375.054 -235.412Z" fill="#6AD3E5"/>
<path d="M359.104 615.08C365.128 625.676 372.519 635.47 379.804 645.326C390.746 658.407 400.395 672.174 411.337 685.255C426.574 702.811 441.841 720.419 457.617 735.963C469.172 746.918 478.577 757.297 489.296 766.906C522.29 797.078 556.597 826.48 593.289 850.952C625.846 874.317 659.017 895.555 695.325 913.189C724.117 929.931 756.152 943.006 788.156 956.029C811.169 965.564 834.66 972.982 858.151 980.4C900.329 992.826 943.068 1003.16 986.93 1009.3C1021.91 1015.35 1056.72 1017.9 1092.84 1019.67C1109.39 987.016 1123.84 953.75 1136.22 919.931C1148.58 886.196 1159.6 853.178 1167.84 818.251C1179.09 776.269 1186.93 734.586 1189.35 692.483C1192.91 670.896 1193.83 650.934 1193.4 631.689C933.124 497.857 624.108 491.564 359.104 615.08Z" fill="#6AD3E5"/>
</svg>
