<svg width="48" height="49" viewBox="0 0 48 49" fill="none" xmlns="http://www.w3.org/2000/svg">
<path d="M10.9004 40.4452C11.2043 39.9756 11.5107 39.5311 11.8698 39.089C11.9803 38.9509 12.0909 38.8128 12.2014 38.6721C13.0653 37.5872 14.1076 36.668 15.2202 35.8492C15.6346 35.5428 16.0792 35.239 16.5212 34.9627C17.0461 34.6588 17.6012 34.38 18.1562 34.1038C18.4877 33.9656 18.8192 33.7999 19.1809 33.6618C19.5124 33.5513 19.8465 33.4408 20.178 33.3302C20.8712 33.1092 21.5618 32.9159 22.2826 32.7752C22.6443 32.72 23.0311 32.6647 23.3902 32.6095C23.5836 32.5818 23.8046 32.5542 24.0282 32.5542C23.5309 37.871 20.6225 42.6905 16.1344 45.5988C15.8582 45.4606 15.6095 45.2672 15.3584 45.0462C14.9992 44.7951 14.6401 44.5213 14.2784 44.2149C14.1126 44.1044 13.9745 43.9939 13.8364 43.8558C13.5325 43.5795 13.2261 43.3033 12.9498 42.9969C12.5881 42.6101 12.229 42.2208 11.8698 41.7788C11.5383 41.3594 11.2043 40.9174 10.9004 40.4452Z" fill="#84CC16"/>
<path d="M24.0312 32.5513C24.2523 32.5513 24.4733 32.5789 24.6943 32.6065C24.9982 32.6618 25.3046 32.6894 25.6085 32.7447C26.0229 32.8275 26.4398 32.9104 26.8266 33.0209C27.1028 33.1038 27.354 33.159 27.6026 33.2419C28.3787 33.4931 29.1548 33.7693 29.8731 34.1285C30.5386 34.4324 31.174 34.7664 31.7843 35.1808C32.3093 35.4847 32.809 35.8739 33.3088 36.2607C33.6705 36.537 34.002 36.8434 34.3335 37.1473C34.9162 37.7023 35.4688 38.2824 35.9686 38.9204C36.3855 39.4176 36.7446 39.945 37.1038 40.4975C36.7446 41.0526 36.3553 41.5775 35.9409 42.0773C35.5265 42.5745 35.1096 43.0467 34.64 43.4887C34.0849 44.0437 33.5047 44.541 32.8668 44.9554C32.5629 45.2065 32.2565 45.3999 31.9526 45.5657C27.4645 42.6624 24.5285 37.8429 24.0312 32.5513Z" fill="#84CC16"/>
<path d="M24.0003 48.4414C25.823 48.4414 27.3005 46.9639 27.3005 45.1414C27.3005 43.3188 25.823 41.8413 24.0003 41.8413C22.1777 41.8413 20.7002 43.3188 20.7002 45.1414C20.7002 46.9639 22.1777 48.4414 24.0003 48.4414Z" fill="#84CC16"/>
<path d="M37.0985 8.43771C36.7946 8.90736 36.4882 9.35188 36.129 9.79389C36.0185 9.93202 35.908 10.0702 35.7975 10.2108C34.9335 11.2958 33.8913 12.215 32.7786 13.0337C32.3642 13.3401 31.9197 13.644 31.4777 13.9202C30.9528 14.2241 30.3977 14.5029 29.8427 14.7792C29.5111 14.9173 29.1796 15.083 28.818 15.2212C28.4864 15.3317 28.1524 15.4422 27.8209 15.5527C27.1277 15.7737 26.437 15.9671 25.7162 16.1077C25.3546 16.163 24.9678 16.2182 24.6086 16.2735C24.4152 16.3011 24.1942 16.3287 23.9707 16.3287C24.468 11.012 27.3763 6.19246 31.8644 3.28418C32.1407 3.42231 32.3894 3.6157 32.6405 3.83671C32.9997 4.08785 33.3588 4.3616 33.7205 4.668C33.8862 4.7785 34.0244 4.88901 34.1625 5.02714C34.4664 5.3034 34.7728 5.57966 35.0491 5.88605C35.4107 6.27282 35.7699 6.66209 36.129 7.10411C36.4631 7.52352 36.7946 7.96556 37.0985 8.43771Z" fill="#84CC16"/>
<path d="M23.9729 16.3308C23.7519 16.3308 23.5309 16.3032 23.3099 16.2756C23.006 16.2203 22.6996 16.1927 22.3957 16.1374C21.9813 16.0546 21.5643 15.9717 21.1776 15.8612C20.9013 15.7783 20.6502 15.723 20.4015 15.6402C19.6254 15.389 18.8494 15.1128 18.1311 14.7536C17.4655 14.4497 16.8301 14.1157 16.2198 13.7013C15.6949 13.3974 15.1951 13.0081 14.6953 12.6214C14.3336 12.3451 14.0021 12.0387 13.6706 11.7348C13.0879 11.1798 12.5354 10.5996 12.0356 9.96173C11.6187 9.46446 11.2595 8.93706 10.9004 8.38454C11.2595 7.82951 11.6488 7.30462 12.0632 6.80484C12.4776 6.30756 12.8945 5.8354 13.3642 5.39338C13.9193 4.83834 14.4994 4.34108 15.1373 3.92669C15.4412 3.67554 15.7476 3.48216 16.0515 3.31641C20.5396 6.21966 23.4756 11.0392 23.9729 16.3308Z" fill="#84CC16"/>
<path d="M24.0003 7.04202C25.823 7.04202 27.3005 5.56454 27.3005 3.74196C27.3005 1.91939 25.823 0.441895 24.0003 0.441895C22.1777 0.441895 20.7002 1.91939 20.7002 3.74196C20.7002 5.56454 22.1777 7.04202 24.0003 7.04202Z" fill="#84CC16"/>
<path d="M7.99643 11.3408C8.46609 11.6447 8.91063 11.9511 9.35266 12.3102C9.4908 12.4207 9.62893 12.5313 9.76958 12.6418C10.8546 13.5057 11.7738 14.5479 12.5925 15.6605C12.8989 16.0749 13.2028 16.5194 13.4791 16.9615C13.783 17.4864 14.0618 18.0414 14.338 18.5964C14.4762 18.9279 14.6419 19.2595 14.7801 19.6211C14.8906 19.9526 15.0011 20.2867 15.1116 20.6182C15.3326 21.3113 15.526 22.002 15.6666 22.7228C15.7219 23.0819 15.7772 23.4712 15.8324 23.8303C15.86 24.0237 15.8877 24.2447 15.8877 24.4682C10.5708 23.971 5.75113 21.0627 2.84277 16.5747C2.98091 16.2984 3.1743 16.0498 3.39531 15.7987C3.64647 15.4395 3.92022 15.0804 4.22663 14.7187C4.33714 14.553 4.44764 14.4149 4.58578 14.2767C4.86204 13.9728 5.13832 13.6664 5.44472 13.3902C5.8315 13.031 6.22078 12.6694 6.66281 12.3102C7.08223 11.9787 7.52677 11.6447 7.99643 11.3408Z" fill="#84CC16"/>
<path d="M15.8917 24.4683C15.8917 24.6893 15.8641 24.9103 15.8365 25.1313C15.7812 25.4352 15.7536 25.7416 15.6983 26.0455C15.6154 26.4599 15.5326 26.8768 15.4221 27.2635C15.3392 27.5398 15.2839 27.7909 15.201 28.0396C14.9499 28.8156 14.6736 29.5917 14.3145 30.3099C14.0106 30.9755 13.6765 31.6109 13.2621 32.2212C12.9582 32.746 12.5689 33.2458 12.1822 33.7456C11.9059 34.1073 11.5995 34.4388 11.2956 34.7703C10.7406 35.353 10.1604 35.9055 9.52246 36.4053C9.02518 36.8222 8.49776 37.1813 7.94522 37.5404C7.39017 37.1813 6.86526 36.792 6.36546 36.3776C5.86818 35.9632 5.39602 35.5463 4.95399 35.0767C4.39894 34.5217 3.90166 33.9415 3.48725 33.3036C3.2361 32.9997 3.04271 32.6933 2.87695 32.3894C5.78279 27.9014 10.6024 24.968 15.8917 24.4683Z" fill="#84CC16"/>
<path d="M3.30016 27.7408C5.12278 27.7408 6.6003 26.2633 6.6003 24.4407C6.6003 22.6181 5.12278 21.1406 3.30016 21.1406C1.47753 21.1406 0 22.6181 0 24.4407C0 26.2633 1.47753 27.7408 3.30016 27.7408Z" fill="#84CC16"/>
<path d="M40.0074 37.54C39.5378 37.2361 39.0932 36.9297 38.6512 36.5706C38.5131 36.4601 38.3749 36.3496 38.2343 36.2391C37.1493 35.3751 36.2301 34.3329 35.4113 33.2203C35.1049 32.8059 34.801 32.3614 34.5248 31.9194C34.2209 31.3945 33.9421 30.8394 33.6658 30.2844C33.5277 29.9529 33.3619 29.6214 33.2238 29.2597C33.1133 28.9282 33.0028 28.5942 32.8923 28.2627C32.6713 27.5695 32.4779 26.8789 32.3372 26.1581C32.282 25.7989 32.2267 25.4096 32.1715 25.0505C32.1438 24.8571 32.1162 24.6361 32.1162 24.4126C37.4331 24.9099 42.2527 27.8181 45.1611 32.3061C45.023 32.5824 44.8296 32.831 44.6086 33.0822C44.3574 33.4413 44.0837 33.8005 43.7773 34.1621C43.6667 34.3279 43.5562 34.466 43.4181 34.6041C43.1418 34.908 42.8656 35.2144 42.5592 35.4907C42.1724 35.8498 41.7831 36.2115 41.3411 36.5706C40.9216 36.9021 40.4771 37.2361 40.0074 37.54Z" fill="#84CC16"/>
<path d="M32.1104 24.413C32.1104 24.192 32.138 23.971 32.1656 23.75C32.2209 23.4461 32.2485 23.1397 32.3037 22.8358C32.3866 22.4214 32.4695 22.0045 32.58 21.6177C32.6629 21.3415 32.7181 21.0903 32.801 20.8417C33.0522 20.0656 33.3284 19.2896 33.6876 18.5713C33.9915 17.9058 34.3255 17.2704 34.7399 16.6601C35.0438 16.1352 35.4331 15.6354 35.8199 15.1356C36.0961 14.774 36.4026 14.4425 36.7065 14.111C37.2615 13.5283 37.8417 12.9758 38.4796 12.476C38.9769 12.0591 39.5043 11.7 40.0568 11.3408C40.6119 11.7 41.1368 12.0892 41.6366 12.5036C42.1339 12.918 42.606 13.3349 43.0481 13.8046C43.6031 14.3596 44.1004 14.9397 44.5148 15.5777C44.766 15.8815 44.9593 16.1879 45.1251 16.4918C42.2218 20.9798 37.4021 23.9132 32.1104 24.413Z" fill="#84CC16"/>
<path d="M44.7035 27.7408C46.5261 27.7408 48.0036 26.2633 48.0036 24.4407C48.0036 22.6181 46.5261 21.1406 44.7035 21.1406C42.8809 21.1406 41.4033 22.6181 41.4033 24.4407C41.4033 26.2633 42.8809 27.7408 44.7035 27.7408Z" fill="#84CC16"/>
</svg>
