<svg width="188" height="36" viewBox="0 0 188 36" fill="none" xmlns="http://www.w3.org/2000/svg">
<path d="M42.4775 28.8329V12.1829H45.6184V14.6027C46.7491 12.8026 48.3623 11.9016 50.4562 11.9016C51.6082 11.9016 52.6552 12.1954 53.5971 12.7812C54.539 13.367 55.2726 14.2163 55.7961 15.3256C56.3623 14.2573 57.1564 13.4204 58.1838 12.8115C59.2094 12.2043 60.3205 11.8998 61.5135 11.8998C63.2299 11.8998 64.6971 12.507 65.9114 13.7213C67.1258 14.9357 67.7329 16.5916 67.7329 18.6855V28.8329H64.592V19.4707C64.592 17.984 64.2662 16.8266 63.6181 15.9987C62.9682 15.1725 62.0672 14.7576 60.917 14.7576C59.6189 14.7576 58.6076 15.2027 57.8847 16.093C57.1618 16.9833 56.7701 18.0873 56.706 19.4066V28.8311H53.5651V19.469C53.5651 18.0036 53.2357 16.8515 52.5751 16.0129C51.9145 15.176 51.0206 14.7558 49.89 14.7558C48.5083 14.7558 47.4506 15.2473 46.717 16.2319C45.9835 17.2166 45.6184 18.4202 45.6184 19.8447V28.8293H42.4775V28.8329Z" fill="#020617"/>
<path d="M78.3221 29.084C76.0181 29.084 74.0542 28.2418 72.4321 26.5556C70.8082 24.8694 69.998 22.8431 69.998 20.4768C69.998 18.089 70.81 16.0628 72.4321 14.3979C74.0542 12.7331 76.0181 11.8998 78.3221 11.8998C80.7936 11.8998 82.7094 12.8738 84.0716 14.8217V12.1829H87.2125V28.8329H84.0716V26.1941C83.443 27.0951 82.6311 27.802 81.6375 28.3148C80.6404 28.8276 79.5365 29.084 78.3221 29.084ZM78.6053 26.2262C80.1543 26.2262 81.4844 25.66 82.5955 24.5293C83.7048 23.3986 84.2603 22.0472 84.2603 20.4768C84.2603 18.9277 83.7048 17.5816 82.5955 16.4402C81.4844 15.2989 80.1561 14.7273 78.6053 14.7273C77.0134 14.7273 75.6727 15.2936 74.5848 16.4242C73.4951 17.5549 72.952 18.9063 72.952 20.4768C72.952 22.0686 73.5022 23.4254 74.6008 24.5453C75.6994 25.6653 77.0348 26.2262 78.6053 26.2262Z" fill="#020617"/>
<path d="M101.253 28.7065C98.6981 29.3973 96.6504 29.2923 95.112 28.3931C93.5718 27.4921 92.8027 25.8807 92.8027 23.5553L92.8347 14.9161H89.5371V12.1829H92.8347V7.87931H95.9453L95.9133 12.1829H101.191V14.9161H95.9133L95.8812 23.5233C95.8812 24.6967 96.3264 25.4872 97.2166 25.895C98.1069 26.3027 99.453 26.2351 101.253 25.6902V28.7065Z" fill="#020617"/>
<path d="M111.495 29.084C109.086 29.084 107.06 28.2364 105.416 26.5396C103.771 24.8427 102.95 22.8217 102.95 20.4768C102.95 18.089 103.787 16.0628 105.463 14.3979C107.138 12.7331 109.148 11.8998 111.493 11.8998C113.252 11.8998 114.839 12.3913 116.253 13.3759C117.666 14.3605 118.687 15.6586 119.315 17.2717L116.393 18.0249C115.954 17.0403 115.298 16.2444 114.429 15.6372C113.561 15.03 112.581 14.7256 111.492 14.7256C109.941 14.7256 108.621 15.2918 107.533 16.4224C106.444 17.5531 105.901 18.9045 105.901 20.475C105.901 22.0668 106.445 23.4236 107.533 24.5435C108.621 25.6635 109.941 26.2244 111.492 26.2244C112.601 26.2244 113.585 25.9253 114.444 25.3288C115.302 24.7323 115.952 23.9417 116.392 22.9571L119.314 23.7102C118.685 25.3021 117.668 26.5947 116.267 27.5901C114.867 28.5872 113.276 29.084 111.495 29.084Z" fill="#020617"/>
<path d="M121.956 28.8329V6.84303H125.097V14.6971C126.374 12.8328 128.197 11.9016 130.563 11.9016C132.468 11.9016 134.114 12.5194 135.495 13.7551C136.877 14.9909 137.57 16.6343 137.57 18.6873V28.8347H134.429V19.5989C134.429 18.1122 134 16.9441 133.142 16.0966C132.283 15.249 131.226 14.8253 129.969 14.8253C128.544 14.8253 127.376 15.3434 126.466 16.3797C125.555 17.416 125.101 18.7193 125.101 20.2898V28.8347H121.956V28.8329Z" fill="#020617"/>
<path d="M148.815 29.084C146.428 29.084 144.407 28.2418 142.753 26.5556C141.098 24.8694 140.271 22.8431 140.271 20.4768C140.271 18.089 141.107 16.0628 142.783 14.3979C144.458 12.7331 146.469 11.8998 148.814 11.8998C150.908 11.8998 152.745 12.596 154.326 13.9884C155.907 15.3808 156.855 17.1044 157.17 19.1556C157.358 20.0975 157.369 20.9255 157.202 21.6377H143.379C143.568 23.0408 144.17 24.1607 145.187 24.9994C146.202 25.838 147.412 26.2564 148.815 26.2564C149.8 26.2564 150.731 26.0481 151.611 25.6279C152.49 25.2095 153.213 24.6326 153.778 23.9008L156.573 24.6237C155.902 25.9644 154.846 27.0434 153.4 27.8589C151.956 28.6762 150.427 29.084 148.815 29.084ZM143.381 19.1894H154.125C153.915 17.9128 153.318 16.8444 152.334 15.9844C151.349 15.1262 150.167 14.6971 148.783 14.6971C147.38 14.6971 146.177 15.1315 145.171 16.0004C144.166 16.8694 143.568 17.9323 143.381 19.1894Z" fill="#020617"/>
<path d="M159.873 28.8329V12.1829H163.014V15.1992C163.516 14.0472 164.339 13.1836 165.48 12.6067C166.621 12.0316 167.998 11.8678 169.611 12.1188V15.4485C167.852 14.9463 166.312 15.1653 164.992 16.109C163.673 17.051 163.014 18.4861 163.014 20.4126V28.8311H159.873V28.8329Z" fill="#020617"/>
<path d="M185.179 26.5556C183.514 28.2418 181.498 29.084 179.132 29.084C176.765 29.084 174.75 28.2418 173.085 26.5556C171.42 24.8694 170.587 22.8431 170.587 20.4767C170.587 18.1104 171.42 16.0895 173.085 14.414C174.75 12.7385 176.765 11.9016 179.132 11.9016C181.498 11.9016 183.514 12.7456 185.179 14.43C186.843 16.1162 187.677 18.1318 187.677 20.4767C187.675 22.8431 186.843 24.8694 185.179 26.5556ZM175.172 24.5293C176.26 25.6404 177.579 26.1941 179.13 26.1941C180.679 26.1941 181.998 25.6332 183.088 24.5133C184.176 23.3933 184.721 22.0472 184.721 20.4767C184.721 18.9063 184.181 17.5602 183.102 16.4402C182.023 15.3203 180.699 14.7594 179.128 14.7594C177.577 14.7594 176.258 15.3203 175.17 16.4402C174.08 17.5602 173.537 18.9063 173.537 20.4767C173.539 22.0686 174.084 23.42 175.172 24.5293Z" fill="#020617"/>
<path d="M7.72754 29.3457C7.94299 29.0127 8.16021 28.6976 8.41483 28.3842C8.49318 28.2863 8.57152 28.1883 8.64987 28.0886C9.26238 27.3194 10.0013 26.6677 10.7901 26.0873C11.0839 25.87 11.399 25.6546 11.7124 25.4587C12.0846 25.2433 12.4781 25.0456 12.8716 24.8498C13.1066 24.7518 13.3416 24.6343 13.598 24.5364C13.8331 24.4581 14.0699 24.3797 14.3049 24.3014C14.7963 24.1447 15.286 24.0076 15.797 23.9079C16.0534 23.8687 16.3276 23.8295 16.5822 23.7904C16.7193 23.7708 16.876 23.7512 17.0345 23.7512C16.6819 27.5206 14.6201 30.9375 11.4382 32.9994C11.2424 32.9015 11.0661 32.7644 10.888 32.6077C10.6334 32.4296 10.3788 32.2355 10.1224 32.0183C10.0049 31.94 9.90693 31.8616 9.809 31.7637C9.59356 31.5678 9.37633 31.372 9.18047 31.1547C8.92407 30.8805 8.66945 30.6045 8.41483 30.2912C8.1798 29.9938 7.94299 29.6804 7.72754 29.3457Z" fill="#84CC16"/>
<path d="M17.0371 23.7494C17.1938 23.7494 17.3505 23.769 17.5072 23.7886C17.7226 23.8277 17.9399 23.8473 18.1553 23.8865C18.4491 23.9453 18.7447 24.004 19.0189 24.0824C19.2147 24.1411 19.3928 24.1803 19.5691 24.2391C20.1193 24.4171 20.6694 24.613 21.1787 24.8676C21.6505 25.083 22.101 25.3199 22.5337 25.6136C22.9058 25.8291 23.2601 26.1051 23.6145 26.3793C23.8709 26.5751 24.1059 26.7924 24.3409 27.0078C24.754 27.4013 25.1458 27.8126 25.5001 28.2649C25.7957 28.6174 26.0503 28.9914 26.3049 29.3831C26.0503 29.7766 25.7743 30.1487 25.4805 30.503C25.1867 30.8556 24.8911 31.1904 24.5582 31.5037C24.1647 31.8972 23.7534 32.2498 23.3011 32.5436C23.0857 32.7216 22.8684 32.8587 22.653 32.9762C19.4711 30.9179 17.3897 27.501 17.0371 23.7494Z" fill="#84CC16"/>
<path d="M17.0154 35.015C18.3076 35.015 19.3551 33.9675 19.3551 32.6753C19.3551 31.3832 18.3076 30.3357 17.0154 30.3357C15.7233 30.3357 14.6758 31.3832 14.6758 32.6753C14.6758 33.9675 15.7233 35.015 17.0154 35.015Z" fill="#84CC16"/>
<path d="M26.3011 6.65429C26.0857 6.98726 25.8684 7.30241 25.6138 7.61579C25.5355 7.71372 25.4571 7.81166 25.3788 7.91137C24.7663 8.68057 24.0273 9.33225 23.2385 9.91271C22.9448 10.1299 22.6296 10.3454 22.3162 10.5412C21.9441 10.7567 21.5506 10.9543 21.1571 11.1502C20.922 11.2481 20.687 11.3656 20.4306 11.4636C20.1956 11.5419 19.9588 11.6203 19.7237 11.6986C19.2323 11.8553 18.7426 11.9924 18.2316 12.0921C17.9752 12.1313 17.701 12.1705 17.4464 12.2096C17.3093 12.2292 17.1526 12.2488 16.9941 12.2488C17.3467 8.47936 19.4086 5.06247 22.5904 3.00059C22.7863 3.09852 22.9626 3.23562 23.1406 3.39231C23.3952 3.57037 23.6499 3.76445 23.9063 3.98168C24.0238 4.06002 24.1217 4.13836 24.2196 4.23629C24.4351 4.43216 24.6523 4.62801 24.8482 4.84524C25.1046 5.11945 25.3592 5.39543 25.6138 5.70881C25.8506 6.00616 26.0857 6.31955 26.3011 6.65429Z" fill="#84CC16"/>
<path d="M16.9944 12.2506C16.8377 12.2506 16.681 12.231 16.5243 12.2114C16.3088 12.1722 16.0916 12.1526 15.8762 12.1135C15.5824 12.0547 15.2868 11.996 15.0126 11.9176C14.8167 11.8589 14.6387 11.8197 14.4624 11.7609C13.9122 11.5829 13.362 11.387 12.8528 11.1324C12.3809 10.9169 11.9305 10.6801 11.4978 10.3863C11.1256 10.1709 10.7713 9.8949 10.417 9.6207C10.1606 9.42483 9.92555 9.2076 9.69051 8.99215C9.27743 8.59865 8.8857 8.18734 8.53137 7.73508C8.2358 7.38253 7.98118 7.00862 7.72656 6.6169C7.98118 6.22339 8.25716 5.85126 8.55096 5.49693C8.84475 5.14438 9.14032 4.80963 9.47329 4.49625C9.86679 4.10275 10.2781 3.7502 10.7304 3.45641C10.9458 3.27835 11.163 3.14125 11.3785 3.02374C14.5603 5.08206 16.6418 8.49895 16.9944 12.2506Z" fill="#84CC16"/>
<path d="M17.0145 5.6643C18.3066 5.6643 19.3541 4.61681 19.3541 3.32466C19.3541 2.0325 18.3066 0.985001 17.0145 0.985001C15.7223 0.985001 14.6748 2.0325 14.6748 3.32466C14.6748 4.61681 15.7223 5.6643 17.0145 5.6643Z" fill="#84CC16"/>
<path d="M5.66932 8.71262C6.00229 8.92806 6.31745 9.14529 6.63083 9.39991C6.72876 9.47825 6.82669 9.5566 6.9264 9.63494C7.6956 10.2475 8.34728 10.9864 8.92774 11.7752C9.14497 12.069 9.36042 12.3841 9.55628 12.6975C9.77172 13.0696 9.96936 13.4631 10.1652 13.8566C10.2632 14.0917 10.3807 14.3267 10.4786 14.5831C10.5569 14.8181 10.6353 15.055 10.7136 15.29C10.8703 15.7814 11.0074 16.2711 11.1071 16.7821C11.1463 17.0367 11.1855 17.3127 11.2247 17.5673C11.2442 17.7044 11.2638 17.8611 11.2638 18.0196C7.49439 17.667 4.07751 15.6051 2.01562 12.4233C2.11356 12.2274 2.25066 12.0512 2.40735 11.8731C2.5854 11.6185 2.77948 11.3639 2.99671 11.1075C3.07506 10.9899 3.1534 10.892 3.25133 10.7941C3.44719 10.5786 3.64306 10.3614 3.86028 10.1655C4.13449 9.91093 4.41047 9.65453 4.72385 9.39991C5.0212 9.16487 5.33636 8.92806 5.66932 8.71262Z" fill="#84CC16"/>
<path d="M11.2659 18.0196C11.2659 18.1763 11.2463 18.333 11.2267 18.4896C11.1876 18.7051 11.168 18.9223 11.1288 19.1378C11.07 19.4316 11.0113 19.7271 10.9329 20.0013C10.8742 20.1972 10.835 20.3753 10.7762 20.5515C10.5982 21.1017 10.4023 21.6519 10.1477 22.1612C9.93227 22.633 9.69545 23.0835 9.40166 23.5162C9.18621 23.8883 8.91022 24.2426 8.63602 24.597C8.44016 24.8534 8.22293 25.0884 8.00748 25.3234C7.61398 25.7365 7.20267 26.1282 6.75041 26.4826C6.39786 26.7781 6.02394 27.0328 5.63222 27.2874C5.23872 27.0328 4.86658 26.7568 4.51225 26.463C4.1597 26.1692 3.82496 25.8736 3.51158 25.5406C3.11808 25.1471 2.76553 24.7358 2.47174 24.2836C2.29368 24.0681 2.15658 23.8509 2.03906 23.6355C4.09916 20.4536 7.51605 18.3739 11.2659 18.0196Z" fill="#84CC16"/>
<path d="M2.33965 20.3396C3.63181 20.3396 4.6793 19.2921 4.6793 18C4.6793 16.7078 3.63181 15.6603 2.33965 15.6603C1.0475 15.6603 0 16.7078 0 18C0 19.2921 1.0475 20.3396 2.33965 20.3396Z" fill="#84CC16"/>
<path d="M28.3631 27.2874C28.0301 27.0719 27.7149 26.8547 27.4016 26.6001C27.3036 26.5217 27.2057 26.4434 27.106 26.365C26.3368 25.7525 25.6851 25.0136 25.1046 24.2248C24.8874 23.931 24.672 23.6159 24.4761 23.3025C24.2607 22.9304 24.063 22.5369 23.8672 22.1434C23.7692 21.9083 23.6517 21.6733 23.5538 21.4169C23.4754 21.1819 23.3971 20.945 23.3188 20.71C23.1621 20.2186 23.025 19.7289 22.9252 19.2179C22.8861 18.9633 22.8469 18.6873 22.8077 18.4327C22.7881 18.2956 22.7686 18.1389 22.7686 17.9804C26.538 18.333 29.9549 20.3948 32.0168 23.5767C31.9188 23.7726 31.7817 23.9488 31.625 24.1269C31.447 24.3815 31.2529 24.6361 31.0357 24.8925C30.9573 25.0101 30.879 25.108 30.7811 25.2059C30.5852 25.4213 30.3893 25.6386 30.1721 25.8344C29.8979 26.0891 29.6219 26.3455 29.3085 26.6001C29.0112 26.8351 28.696 27.0719 28.3631 27.2874Z" fill="#84CC16"/>
<path d="M22.7646 17.9804C22.7646 17.8237 22.7842 17.667 22.8038 17.5103C22.843 17.2949 22.8626 17.0777 22.9017 16.8622C22.9605 16.5684 23.0193 16.2729 23.0976 15.9987C23.1564 15.8028 23.1955 15.6247 23.2543 15.4485C23.4324 14.8983 23.6282 14.3481 23.8828 13.8388C24.0983 13.367 24.3351 12.9165 24.6289 12.4838C24.8443 12.1117 25.1203 11.7574 25.3945 11.403C25.5904 11.1466 25.8076 10.9116 26.0231 10.6766C26.4166 10.2635 26.8279 9.87175 27.2801 9.51742C27.6327 9.22185 28.0066 8.96724 28.3983 8.71262C28.7918 8.96724 29.164 9.24322 29.5183 9.53701C29.8708 9.8308 30.2056 10.1264 30.519 10.4593C30.9125 10.8528 31.265 11.2642 31.5588 11.7164C31.7369 11.9319 31.874 12.1491 31.9915 12.3645C29.9332 15.5464 26.5163 17.6261 22.7646 17.9804Z" fill="#84CC16"/>
<path d="M31.6922 20.3396C32.9843 20.3396 34.0318 19.2921 34.0318 18C34.0318 16.7078 32.9843 15.6603 31.6922 15.6603C30.4 15.6603 29.3525 16.7078 29.3525 18C29.3525 19.2921 30.4 20.3396 31.6922 20.3396Z" fill="#84CC16"/>
</svg>
