<svg width="123" height="32" viewBox="0 0 123 32" fill="none" xmlns="http://www.w3.org/2000/svg">
<g clip-path="url(#clip0_3355_31106)">
<path fill-rule="evenodd" clip-rule="evenodd" d="M120.773 0.941895H94.568C93.3145 0.941895 92.25 1.94128 92.25 3.17242V29.7099C92.25 30.9425 92.9485 31.9419 94.2019 31.9419H120.407C121.662 31.9419 123 30.9425 123 29.7099V3.17242C123 1.94128 122.028 0.941895 120.773 0.941895Z" fill="white"/>
<path fill-rule="evenodd" clip-rule="evenodd" d="M120.773 0.941895H94.568C93.3145 0.941895 92.25 1.94128 92.25 3.17242V29.7099C92.25 30.9425 92.9485 31.9419 94.2019 31.9419H120.407C121.662 31.9419 123 30.9425 123 29.7099V3.17242C123 1.94128 122.028 0.941895 120.773 0.941895ZM103.964 12.7514H108.104V14.8786H108.149C108.78 13.7316 110.644 12.5669 112.949 12.5669C117.373 12.5669 118.607 14.9347 118.607 19.3205V27.5133H114.214V20.1279C114.214 18.1646 113.437 16.4419 111.618 16.4419C109.41 16.4419 108.357 17.9491 108.357 20.4232V27.5133H103.964V12.7514ZM96.6429 27.5133H101.036V12.7514H96.6429V27.5133ZM101.585 7.58475C101.585 7.94818 101.514 8.30808 101.376 8.6439C101.238 8.97972 101.036 9.28488 100.782 9.54195C100.527 9.79903 100.224 10.003 99.8912 10.1422C99.5582 10.2813 99.2012 10.353 98.8407 10.3531C98.4803 10.3532 98.1233 10.2817 97.7902 10.1427C97.4571 10.0037 97.1544 9.79993 96.8995 9.543C96.6445 9.28606 96.4423 8.98101 96.3043 8.64526C96.1663 8.30952 96.0952 7.94965 96.0952 7.58623C96.0952 6.85243 96.3842 6.14866 96.8988 5.6297C97.4134 5.11074 98.1114 4.81909 98.8393 4.81889C99.5672 4.8187 100.265 5.10997 100.78 5.62866C101.295 6.14734 101.584 6.85096 101.585 7.58475Z" fill="#0A66C2"/>
<path d="M87.8574 27.5132H83.7574V25.7551H83.7134C82.8012 26.8209 81.2168 27.6977 78.5313 27.6977C74.8706 27.6977 71.718 24.921 71.718 20.1485C71.718 15.6018 74.8252 12.5668 78.669 12.5668C81.0484 12.5668 82.5259 13.42 83.4206 14.5095H83.4645V5.37036H87.8574V27.5132ZM79.773 15.8882C77.2618 15.8882 75.8502 17.6936 75.8502 20.0939C75.8502 22.4956 77.2618 24.3763 79.773 24.3763C82.2872 24.3763 83.7574 22.5444 83.7574 20.0939C83.7574 17.5755 82.2872 15.8882 79.773 15.8882ZM69.7895 25.1351C68.7528 26.4887 66.6179 27.6977 63.171 27.6977C58.5731 27.6977 55.6445 24.6273 55.6445 19.8046C55.6445 15.5192 58.2964 12.5668 63.2998 12.5668C67.6209 12.5668 70.2859 15.4276 70.2859 20.46C70.2859 20.9619 70.2054 21.4608 70.2054 21.4608H59.7885L59.8134 21.917C60.1018 23.1895 61.0551 24.7454 63.2427 24.7454C65.1521 24.7454 66.4612 23.7106 67.0528 22.9001L69.7895 25.1351ZM66.0585 18.6546C66.0878 17.0987 64.9545 15.5192 63.168 15.5192C61.0419 15.5192 59.9071 17.1932 59.7885 18.6561H66.0585V18.6546Z" fill="#0A66C2"/>
<path d="M55.6429 12.7513H50.5179L45.3929 18.6561V5.37034H41V27.5132H45.3929V20.1322L50.8092 27.5132H55.9957L49.7857 19.4429L55.6429 12.7513ZM23.4286 12.7513H27.5681V14.8785H27.6135C28.2446 13.7315 30.1086 12.5668 32.4134 12.5668C36.837 12.5668 38.0714 15.3966 38.0714 19.3203V27.5132H33.6786V20.1278C33.6786 17.9549 32.901 16.4418 31.0824 16.4418C28.8742 16.4418 27.8214 18.2043 27.8214 20.4231V27.5132H23.4286V12.7513ZM16.1071 27.5132H20.5V12.7513H16.1071V27.5132ZM18.305 10.2418C18.6563 10.2501 19.0057 10.1876 19.3326 10.0578C19.6595 9.92809 19.9574 9.73376 20.2088 9.48626C20.4601 9.23876 20.6599 8.9431 20.7963 8.61666C20.9326 8.29021 21.0029 7.93958 21.0029 7.58537C21.0029 7.23115 20.9326 6.88052 20.7963 6.55407C20.6599 6.22763 20.4601 5.93197 20.2088 5.68447C19.9574 5.43697 19.6595 5.24264 19.3326 5.11289C19.0057 4.98315 18.6563 4.92061 18.305 4.92896C17.6169 4.94531 16.9625 5.23236 16.4816 5.72876C16.0007 6.22515 15.7314 6.89149 15.7314 7.58537C15.7314 8.27924 16.0007 8.94559 16.4816 9.44198C16.9625 9.93837 17.6169 10.2254 18.305 10.2418ZM4.39286 5.37034H0V27.5132H13.1786V23.0846H4.39286V5.37034Z" fill="#0A66C2"/>
</g>
<defs>
<clipPath id="clip0_3355_31106">
<rect width="123" height="31" fill="white" transform="translate(0 0.941895)"/>
</clipPath>
</defs>
</svg>
