<svg width="123" height="17" viewBox="0 0 123 17" fill="none" xmlns="http://www.w3.org/2000/svg">
<g clip-path="url(#clip0_3355_31104)">
<path d="M53.0286 10.8525H61.1434L56.8571 3.91916L48.9765 16.4418H45.393L54.9774 1.41782C55.1864 1.11802 55.464 0.872743 55.787 0.702528C56.1101 0.532314 56.4692 0.442123 56.8342 0.439512C57.1992 0.4369 57.5595 0.521944 57.885 0.687519C58.2104 0.853094 58.4915 1.09438 58.7047 1.39116L68.3158 16.4418H64.7322L63.0443 13.6418H54.8337L53.0446 10.8525M90.28 13.6418V0.591156H87.2343V14.9272C87.2338 15.1264 87.2736 15.3236 87.3514 15.507C87.4292 15.6903 87.5433 15.856 87.6869 15.9938C87.8311 16.1416 88.0034 16.2588 88.1936 16.3385C88.3839 16.4182 88.5882 16.4588 88.7944 16.4578H102.639L104.444 13.6578H90.2641M39.9246 11.3112C41.3438 11.3112 42.705 10.7464 43.7085 9.74125C44.7121 8.73605 45.2759 7.37272 45.2759 5.95116C45.2759 4.5296 44.7121 3.16626 43.7085 2.16106C42.705 1.15587 41.3438 0.591156 39.9246 0.591156H26.6129V16.4418H29.6533V3.39649H39.7382C40.4175 3.39649 41.0689 3.66676 41.5492 4.14786C42.0296 4.62895 42.2994 5.28145 42.2994 5.96182C42.2994 6.64219 42.0296 7.29469 41.5492 7.77579C41.0689 8.25688 40.4175 8.52716 39.7382 8.52716H31.1602L40.2441 16.4418H44.6582L38.5561 11.3112H39.9246ZM7.91263 16.4418H17.1083C19.1706 16.3882 21.1305 15.53 22.5702 14.0501C24.0099 12.5701 24.8156 10.5855 24.8156 8.51916C24.8156 6.45283 24.0099 4.4682 22.5702 2.98826C21.1305 1.50831 19.1706 0.650088 17.1083 0.59649H7.91263C6.85663 0.569044 5.80584 0.753671 4.82221 1.13948C3.83859 1.52529 2.94205 2.10448 2.18547 2.84288C1.42889 3.58129 0.827584 4.46395 0.417014 5.43884C0.0064439 6.41372 -0.205078 7.46108 -0.205078 8.51916C-0.205078 9.57723 0.0064439 10.6246 0.417014 11.5995C0.827584 12.5744 1.42889 13.457 2.18547 14.1954C2.94205 14.9338 3.83859 15.513 4.82221 15.8988C5.80584 16.2846 6.85663 16.4693 7.91263 16.4418ZM16.9007 13.6525H8.11497C6.78573 13.6095 5.52526 13.0505 4.60014 12.0935C3.67502 11.1365 3.15776 9.85659 3.15776 8.52449C3.15776 7.19239 3.67502 5.91251 4.60014 4.95552C5.52526 3.99852 6.78573 3.43943 8.11497 3.39649H16.9007C17.5869 3.37432 18.2706 3.49055 18.911 3.73828C19.5515 3.98601 20.1357 4.36018 20.629 4.83855C21.1222 5.31692 21.5144 5.88972 21.7823 6.52292C22.0501 7.15613 22.1882 7.8368 22.1882 8.52449C22.1882 9.21218 22.0501 9.89285 21.7823 10.5261C21.5144 11.1593 21.1222 11.7321 20.629 12.2104C20.1357 12.6888 19.5515 13.063 18.911 13.3107C18.2706 13.5584 17.5869 13.6747 16.9007 13.6525ZM74.6681 16.4418H84.0555L85.8339 13.6525H74.8757C74.1895 13.6747 73.5059 13.5584 72.8654 13.3107C72.2249 13.063 71.6407 12.6888 71.1474 12.2104C70.6542 11.7321 70.262 11.1593 69.9941 10.5261C69.7263 9.89285 69.5883 9.21218 69.5883 8.52449C69.5883 7.8368 69.7263 7.15613 69.9941 6.52292C70.262 5.88972 70.6542 5.31692 71.1474 4.83855C71.6407 4.36018 72.2249 3.98601 72.8654 3.73828C73.5059 3.49055 74.1895 3.37432 74.8757 3.39649H83.7946L85.5943 0.59649H74.6681C73.6121 0.569044 72.5613 0.753671 71.5777 1.13948C70.594 1.52529 69.6975 2.10448 68.9409 2.84288C68.1843 3.58129 67.583 4.46395 67.1725 5.43884C66.7619 6.41372 66.5504 7.46108 66.5504 8.51916C66.5504 9.57723 66.7619 10.6246 67.1725 11.5995C67.583 12.5744 68.1843 13.457 68.9409 14.1954C69.6975 14.9338 70.594 15.513 71.5777 15.8988C72.5613 16.2846 73.6121 16.4693 74.6681 16.4418ZM111.872 13.6525C110.756 13.6529 109.671 13.2885 108.781 12.6147C107.891 11.9408 107.245 10.9944 106.941 9.91916H119.944L121.733 7.12449H106.941C107.244 6.04884 107.89 5.10189 108.78 4.42791C109.67 3.75392 110.756 3.38985 111.872 3.39116H120.796L122.58 0.591156H111.664C109.602 0.644755 107.642 1.50298 106.202 2.98293C104.762 4.46287 103.957 6.44749 103.957 8.51382C103.957 10.5802 104.762 12.5648 106.202 14.0447C107.642 15.5247 109.602 16.3829 111.664 16.4365H121.051L122.835 13.6472H111.866" fill="#C74634"/>
</g>
<defs>
<clipPath id="clip0_3355_31104">
<rect width="123" height="16" fill="white" transform="translate(0 0.441895)"/>
</clipPath>
</defs>
</svg>
