<svg width="75" height="31" viewBox="0 0 75 31" fill="none" xmlns="http://www.w3.org/2000/svg">
<g clip-path="url(#clip0_3355_31117)">
<mask id="mask0_3355_31117" style="mask-type:luminance" maskUnits="userSpaceOnUse" x="0" y="0" width="75" height="31">
<path d="M75 0.441895H0V30.4419H75V0.441895Z" fill="white"/>
</mask>
<g mask="url(#mask0_3355_31117)">
<path d="M21.692 14.2159C24.5792 7.47976 31.2988 2.75696 39.1282 2.75696C46.9555 2.75696 53.6774 7.47976 56.5621 14.218H56.5647C56.7314 14.675 57.1713 15.0005 57.6871 15.0005C58.3462 15.0005 58.8796 14.4681 58.8796 13.8149C58.8796 13.6554 58.8536 13.5067 58.797 13.3666C55.5347 5.76609 47.9547 0.441895 39.1261 0.441895C30.2974 0.441895 22.7194 5.76398 19.4615 13.358C19.4008 13.4959 19.377 13.6533 19.377 13.8128C19.377 14.4681 19.9102 14.9983 20.5692 14.9983C21.085 14.9983 21.5121 14.6772 21.692 14.2159Z" fill="black"/>
<path d="M10.9494 26.483C10.8843 26.6835 10.7326 26.8107 10.4486 26.8107H8.85764C8.59752 26.8107 8.46529 26.7374 8.40026 26.483L6.89808 20.898C6.74637 20.3332 6.68134 19.6758 6.59247 19.0183C6.52744 19.6758 6.4407 20.3505 6.28899 20.898L4.78684 26.483C4.74349 26.6835 4.57008 26.8107 4.28613 26.8107H2.67343C2.41331 26.8107 2.28109 26.7374 2.21606 26.483L0.0137709 18.4514C-0.0512574 18.1777 0.122151 18.0117 0.362756 18.0117H1.38587C1.66765 18.0117 1.82156 18.1044 1.88658 18.3782L3.28252 24.1098C3.43209 24.7672 3.47761 25.4419 3.54264 26.0627C3.65102 25.4592 3.73772 24.7499 3.9133 24.1292L5.46098 18.3609C5.526 18.1238 5.72327 18.0138 5.98551 18.0138H7.24706C7.50717 18.0138 7.72614 18.1432 7.79117 18.3803L9.36051 24.1313C9.53606 24.7521 9.6228 25.4462 9.70949 26.0648C9.79618 25.4613 9.88504 24.7521 10.0151 24.1313L11.3005 18.363C11.3439 18.1259 11.5606 18.016 11.8229 18.016H12.781C13.0216 18.016 13.195 18.1626 13.13 18.4364L10.9494 26.483Z" fill="black"/>
<path d="M19.4725 26.8948C16.9473 26.8948 15.2891 25.1682 15.2891 22.3552C15.2891 19.5616 16.9451 17.863 19.4725 17.863C22.0021 17.863 23.6127 19.5616 23.6127 22.3552C23.6105 25.166 22 26.8948 19.4725 26.8948ZM19.4292 19.0874C17.927 19.0874 17.099 20.163 17.099 22.3552C17.099 24.6013 17.927 25.6877 19.4292 25.6877C20.9314 25.6877 21.7594 24.6013 21.7594 22.3552C21.7594 20.163 20.9335 19.0874 19.4292 19.0874Z" fill="black"/>
<path d="M31.7435 19.2534C31.6785 19.5099 31.4834 19.6716 31.1106 19.581C30.805 19.5099 30.3064 19.3805 29.8924 19.3805C29.2594 19.3805 28.4098 20.0962 28.4098 21.6827V26.4486C28.4098 26.6491 28.193 26.8129 27.9524 26.8129H27.1244C26.8859 26.8129 26.667 26.6491 26.667 26.4486V18.3783C26.667 18.1605 26.8859 18.0118 27.1244 18.0118H27.6272C27.8462 18.0118 28.0196 18.1045 28.0846 18.2877L28.3902 19.2728C29.0015 18.4149 29.8274 17.863 30.8309 17.863C31.5268 17.863 32.073 18.139 31.9624 18.5033L31.7435 19.2534Z" fill="black"/>
<path d="M51.6466 26.7353H51.1892C50.8619 26.7353 50.6885 26.6254 50.6235 26.3688L50.4479 25.6381C49.8171 26.5305 49.0325 26.8797 47.901 26.8797C45.6575 26.8797 44.4805 25.3557 44.4805 22.4005C44.4805 20.592 44.7861 19.6974 45.5275 18.8589C46.0932 18.2187 47.0318 17.8717 47.966 17.8717C49.0346 17.8717 49.8388 18.3092 50.4067 19.1671V14.2029C50.4067 13.983 50.6256 13.8364 50.8641 13.8364H51.6487C51.8894 13.8364 52.1062 13.983 52.1062 14.2029V26.3688C52.1041 26.5715 51.885 26.7353 51.6466 26.7353ZM48.3345 19.0766C47.6799 19.0766 47.1792 19.3137 46.8757 19.7879C46.57 20.2643 46.3294 21.0489 46.3294 22.3811C46.3294 24.7177 46.9407 25.6748 48.3128 25.6748C49.7282 25.6748 50.4457 24.6099 50.4457 22.4177C50.4457 20.2427 49.6611 19.0766 48.3345 19.0766Z" fill="black"/>
<path d="M41.7422 26.8173H40.4134C40.1945 26.8173 40.0211 26.6901 39.891 26.5069L36.5356 22.2712V26.453C36.5356 26.6534 36.3166 26.8194 36.0761 26.8194H35.2914C35.0529 26.8194 34.834 26.6534 34.834 26.453V14.2569C34.834 14.0392 35.0508 13.8926 35.2914 13.8926H36.0761C36.3166 13.8926 36.5356 14.0392 36.5356 14.2569V22.1052L39.9929 18.292C40.1013 18.1455 40.2747 18.0183 40.5587 18.0183H41.7335C42.0391 18.0183 42.1475 18.2748 41.9741 18.4559L38.3 22.1246L41.9806 26.3775C42.1345 26.5607 42.0478 26.8173 41.7422 26.8173Z" fill="black"/>
<path d="M64.9296 18.3783C64.8382 18.18 65.0683 18.0183 65.3218 18.0183H66.347C66.6202 18.0183 66.828 18.1455 66.9215 18.3783L68.9482 23.696C69.0411 23.9482 69.1325 24.3254 69.1777 24.6143C69.2473 24.3448 69.3839 23.821 69.5444 23.3705L71.1743 18.3589C71.2439 18.1239 71.4516 18.0161 71.7269 18.0161H72.7153C72.9667 18.0161 73.175 18.1778 73.1054 18.3761L69.7262 28.033C69.3818 29.0224 68.7139 29.7984 67.565 30.2316L67.082 30.4106C66.8758 30.4838 66.6005 30.4278 66.4836 30.2511L66.1627 29.7466C66.0697 29.6022 66.1845 29.3155 66.3928 29.2401L66.735 29.1129C67.5957 28.8025 68.2262 27.8692 68.4994 26.6771L64.9296 18.3783Z" fill="black"/>
<path d="M59.0962 17.8696C56.5667 17.8696 55.0859 19.5725 55.0859 22.3683C55.0859 25.1856 56.6036 26.8712 58.9684 26.8712H58.9705C59.9848 26.8712 60.6419 26.522 61.2724 25.6253L61.4438 26.3798C61.5087 26.6362 61.6843 26.7462 62.0115 26.7462H62.4691C62.7096 26.7462 62.9287 26.5824 62.9287 26.3798L62.9329 22.3467V22.3445C62.935 19.5466 61.6303 17.8696 59.0962 17.8696ZM59.0551 25.6598C57.5484 25.6598 56.9002 24.6165 56.9002 22.3683C56.9002 20.1739 57.5504 19.0961 59.0551 19.0961C60.5593 19.0961 61.2703 20.1739 61.2703 22.3683C61.2682 24.6165 60.5593 25.6598 59.0551 25.6598Z" fill="black"/>
<path d="M74.2743 24.4806C74.4198 24.541 74.5496 24.6294 74.6623 24.7436C74.7709 24.8535 74.855 24.9807 74.9116 25.1208C74.9703 25.2653 75.0004 25.414 75.0004 25.5735C75.0004 25.7352 74.9703 25.8839 74.9096 26.0283C74.8509 26.1749 74.7641 26.2978 74.6514 26.4077C74.5366 26.5176 74.4063 26.6039 74.2634 26.6642C74.1206 26.7224 73.9684 26.7526 73.8126 26.7526C73.6542 26.7526 73.5025 26.7202 73.3576 26.6621C73.2143 26.5996 73.0823 26.509 72.9696 26.3948C72.859 26.2849 72.7764 26.1577 72.7177 26.0175C72.6575 25.8731 72.6289 25.7287 72.6289 25.5714C72.6289 25.4636 72.6466 25.3601 72.6725 25.2545C72.7027 25.1532 72.7442 25.054 72.8024 24.9549C72.9109 24.776 73.0517 24.6358 73.2272 24.5367C73.4049 24.4354 73.6002 24.3879 73.8126 24.3879C73.9731 24.3879 74.1289 24.4181 74.2743 24.4806ZM73.4376 24.6553C73.3181 24.7005 73.2163 24.7716 73.1234 24.8622C73.0236 24.957 72.954 25.0669 72.9 25.1898C72.8481 25.3106 72.8221 25.4377 72.8221 25.567C72.8221 25.6964 72.846 25.8236 72.8933 25.9399C72.9431 26.0564 73.0148 26.1641 73.1057 26.2547C73.2013 26.3495 73.3098 26.4249 73.4288 26.4767C73.5503 26.5284 73.676 26.5543 73.8084 26.5543C73.9362 26.5543 74.0598 26.5284 74.1808 26.481C74.3024 26.4314 74.413 26.3603 74.5107 26.2676C74.6016 26.1792 74.6732 26.0757 74.7252 25.9551C74.775 25.8386 74.801 25.7136 74.801 25.5864C74.801 25.4464 74.7771 25.317 74.7293 25.1963C74.6841 25.0777 74.6104 24.97 74.5195 24.8773C74.4218 24.7803 74.3154 24.7048 74.1964 24.6553C74.077 24.6057 73.9471 24.5798 73.8105 24.5798C73.6781 24.582 73.5524 24.6078 73.4376 24.6553ZM73.8365 24.8924C74.0209 24.8924 74.1637 24.9247 74.2572 24.9872C74.3522 25.0519 74.398 25.1424 74.398 25.2717C74.398 25.3601 74.372 25.4312 74.3221 25.4916C74.2702 25.5541 74.1985 25.5972 74.1097 25.6188L74.4042 26.2051H74.0468L73.7955 25.6683H73.6391V26.2051H73.3181V24.8945H73.8365V24.8924ZM73.6412 25.4743H73.7975C73.8926 25.4743 73.9601 25.4571 74.0032 25.4291C74.0468 25.3989 74.0681 25.3558 74.0681 25.289C74.0681 25.2243 74.0448 25.1748 73.9991 25.1424C73.9492 25.1101 73.8775 25.0928 73.7799 25.0928H73.6391V25.4743H73.6412Z" fill="black"/>
</g>
</g>
<defs>
<clipPath id="clip0_3355_31117">
<rect width="75" height="30" fill="white" transform="translate(0 0.441895)"/>
</clipPath>
</defs>
</svg>
